<?xml version="1.0" encoding="utf-8"?>
<!-- Generator: Adobe Illustrator 19.2.0, SVG Export Plug-In . SVG Version: 6.00 Build 0)  -->
<svg version="1.1" id="Layer_1" xmlns="http://www.w3.org/2000/svg" xmlns:xlink="http://www.w3.org/1999/xlink" x="0px" y="0px"
	 viewBox="0 0 639.4 827.9" style="enable-background:new 0 0 639.4 827.9;" xml:space="preserve">
<style type="text/css">
	.st0{opacity:0.8;}
	.st1{opacity:0.5;fill:url(#SVGID_1_);stroke:#C2F9F9;stroke-miterlimit:10;enable-background:new    ;}
	.st2{opacity:0.5;fill:url(#SVGID_2_);stroke:#C2F9F9;stroke-miterlimit:10;enable-background:new    ;}
	.st3{opacity:0.5;fill:url(#SVGID_3_);stroke:#C2F9F9;stroke-miterlimit:10;enable-background:new    ;}
	.st4{opacity:0.5;fill:url(#SVGID_4_);stroke:#C2F9F9;stroke-miterlimit:10;enable-background:new    ;}
	.st5{opacity:0.5;fill:url(#SVGID_5_);stroke:#C2F9F9;stroke-miterlimit:10;enable-background:new    ;}
	.st6{opacity:0.5;fill:url(#SVGID_6_);stroke:#C2F9F9;stroke-miterlimit:10;enable-background:new    ;}
	.st7{opacity:0.5;fill:url(#SVGID_7_);stroke:#C2F9F9;stroke-miterlimit:10;enable-background:new    ;}
	.st8{opacity:0.5;fill:url(#SVGID_8_);stroke:#C2F9F9;stroke-miterlimit:10;enable-background:new    ;}
	.st9{opacity:0.5;fill:url(#SVGID_9_);stroke:#C2F9F9;stroke-miterlimit:10;enable-background:new    ;}
	.st10{opacity:0.5;fill:url(#SVGID_10_);stroke:#C2F9F9;stroke-miterlimit:10;enable-background:new    ;}
	.st11{opacity:0.5;fill:url(#SVGID_11_);stroke:#C2F9F9;stroke-miterlimit:10;enable-background:new    ;}
	.st12{opacity:0.5;fill:url(#SVGID_12_);stroke:#C2F9F9;stroke-miterlimit:10;enable-background:new    ;}
	.st13{opacity:0.5;fill:url(#SVGID_13_);stroke:#C2F9F9;stroke-miterlimit:10;enable-background:new    ;}
	.st14{opacity:0.5;fill:url(#SVGID_14_);stroke:#C2F9F9;stroke-miterlimit:10;enable-background:new    ;}
	.st15{opacity:0.5;fill:url(#SVGID_15_);stroke:#C2F9F9;stroke-miterlimit:10;enable-background:new    ;}
	.st16{opacity:0.5;fill:url(#SVGID_16_);stroke:#C2F9F9;stroke-miterlimit:10;enable-background:new    ;}
	.st17{opacity:0.5;fill:url(#SVGID_17_);stroke:#C2F9F9;stroke-miterlimit:10;enable-background:new    ;}
	.st18{opacity:0.5;fill:url(#SVGID_18_);stroke:#C2F9F9;stroke-miterlimit:10;enable-background:new    ;}
	.st19{opacity:0.5;fill:url(#SVGID_19_);stroke:#C2F9F9;stroke-miterlimit:10;enable-background:new    ;}
	.st20{opacity:0.5;fill:url(#SVGID_20_);stroke:#C2F9F9;stroke-miterlimit:10;enable-background:new    ;}
	.st21{opacity:0.5;fill:url(#SVGID_21_);stroke:#C2F9F9;stroke-miterlimit:10;enable-background:new    ;}
	.st22{opacity:0.5;fill:url(#SVGID_22_);stroke:#C2F9F9;stroke-miterlimit:10;enable-background:new    ;}
	.st23{opacity:0.5;fill:url(#SVGID_23_);stroke:#C2F9F9;stroke-miterlimit:10;enable-background:new    ;}
	.st24{opacity:0.5;fill:url(#SVGID_24_);stroke:#C2F9F9;stroke-miterlimit:10;enable-background:new    ;}
</style>
<g>
	<g class="st0">
		<linearGradient id="SVGID_1_" gradientUnits="userSpaceOnUse" x1="415.7758" y1="55.5122" x2="440.7758" y2="763.5121">
			<stop  offset="0" style="stop-color:#DFF9F9"/>
			<stop  offset="1" style="stop-color:#A4DBDA"/>
		</linearGradient>
		<path class="st1" d="M231.2,189.3l189.3,189.3l189.3-189.3L420.5,0L231.2,189.3z M420.5,342.7L267.1,189.3L420.5,36l153.3,153.3
			L420.5,342.7z"/>
		<linearGradient id="SVGID_2_" gradientUnits="userSpaceOnUse" x1="415.7135" y1="55.5144" x2="440.7135" y2="763.5143">
			<stop  offset="0" style="stop-color:#DFF9F9"/>
			<stop  offset="1" style="stop-color:#A4DBDA"/>
		</linearGradient>
		<polygon class="st2" points="296.2,189.3 420.4,65.1 544.7,189.3 420.4,313.6 		"/>
	</g>
	<g class="st0">
		<linearGradient id="SVGID_3_" gradientUnits="userSpaceOnUse" x1="530.0735" y1="51.4762" x2="555.0735" y2="759.4762">
			<stop  offset="0" style="stop-color:#DFF9F9"/>
			<stop  offset="1" style="stop-color:#A4DBDA"/>
		</linearGradient>
		<path class="st3" d="M450,465.7l94.7,94.7l94.7-94.7L544.7,371L450,465.7z M544.7,542.4L468,465.7l76.7-76.7l76.7,76.7
			L544.7,542.4z"/>
		<linearGradient id="SVGID_4_" gradientUnits="userSpaceOnUse" x1="530.0671" y1="51.4764" x2="555.0671" y2="759.4764">
			<stop  offset="0" style="stop-color:#DFF9F9"/>
			<stop  offset="1" style="stop-color:#A4DBDA"/>
		</linearGradient>
		<polygon class="st4" points="482.6,465.7 544.7,403.6 606.8,465.7 544.7,527.8 		"/>
	</g>
	<g class="st0">
		<linearGradient id="SVGID_5_" gradientUnits="userSpaceOnUse" x1="95.1912" y1="66.8322" x2="120.1912" y2="774.8322">
			<stop  offset="0" style="stop-color:#DFF9F9"/>
			<stop  offset="1" style="stop-color:#A4DBDA"/>
		</linearGradient>
		<path class="st5" d="M11.5,378.6l94.7,94.7l94.7-94.7l-94.7-94.7L11.5,378.6z M106.2,455.2l-76.7-76.7l76.7-76.7l76.7,76.7
			L106.2,455.2z"/>
		<linearGradient id="SVGID_6_" gradientUnits="userSpaceOnUse" x1="95.2892" y1="66.8288" x2="120.2892" y2="774.8288">
			<stop  offset="0" style="stop-color:#DFF9F9"/>
			<stop  offset="1" style="stop-color:#A4DBDA"/>
		</linearGradient>
		<polygon class="st6" points="44.2,378.5 106.3,316.4 168.4,378.5 106.3,440.5 		"/>
	</g>
	<g class="st0">
		<linearGradient id="SVGID_7_" gradientUnits="userSpaceOnUse" x1="179.3586" y1="63.8602" x2="204.3586" y2="771.8602">
			<stop  offset="0" style="stop-color:#DFF9F9"/>
			<stop  offset="1" style="stop-color:#A4DBDA"/>
		</linearGradient>
		<path class="st7" d="M10,628.6l189.3,189.3l189.3-189.3L199.3,439.3L10,628.6z M199.3,781.9L46.1,628.6l153.3-153.3l153.3,153.3
			L199.3,781.9z"/>
		<linearGradient id="SVGID_8_" gradientUnits="userSpaceOnUse" x1="179.2723" y1="63.8633" x2="204.2723" y2="771.8633">
			<stop  offset="0" style="stop-color:#DFF9F9"/>
			<stop  offset="1" style="stop-color:#A4DBDA"/>
		</linearGradient>
		<polygon class="st8" points="75,628.6 199.2,504.4 323.5,628.6 199.2,752.9 		"/>
	</g>
	<g class="st0">
		<linearGradient id="SVGID_9_" gradientUnits="userSpaceOnUse" x1="289.7" y1="59.964" x2="314.7" y2="767.964">
			<stop  offset="0" style="stop-color:#DFF9F9"/>
			<stop  offset="1" style="stop-color:#A4DBDA"/>
		</linearGradient>
		<path class="st9" d="M207.3,408.3L302,503l94.7-94.7L302,313.6L207.3,408.3z M301.9,485l-76.7-76.7l76.7-76.7l76.7,76.7L301.9,485
			z"/>
		<linearGradient id="SVGID_10_" gradientUnits="userSpaceOnUse" x1="289.7239" y1="59.9631" x2="314.7239" y2="767.9631">
			<stop  offset="0" style="stop-color:#DFF9F9"/>
			<stop  offset="1" style="stop-color:#A4DBDA"/>
		</linearGradient>
		<polygon class="st10" points="239.9,408.3 302,346.2 364.1,408.3 302,470.4 		"/>
	</g>
	<g class="st0">
		<linearGradient id="SVGID_11_" gradientUnits="userSpaceOnUse" x1="553.0566" y1="50.6647" x2="578.0566" y2="758.6647">
			<stop  offset="0" style="stop-color:#DFF9F9"/>
			<stop  offset="1" style="stop-color:#A4DBDA"/>
		</linearGradient>
		<path class="st11" d="M515.2,318.1l47.3,47.3l47.3-47.3l-47.3-47.3L515.2,318.1z M562.6,356.4l-38.3-38.3l38.3-38.3l38.3,38.3
			L562.6,356.4z"/>
		<linearGradient id="SVGID_12_" gradientUnits="userSpaceOnUse" x1="553.084" y1="50.6637" x2="578.084" y2="758.6637">
			<stop  offset="0" style="stop-color:#DFF9F9"/>
			<stop  offset="1" style="stop-color:#A4DBDA"/>
		</linearGradient>
		<polygon class="st12" points="531.5,318.2 562.5,287.1 593.6,318.2 562.5,349.2 		"/>
	</g>
	<g class="st0">
		<linearGradient id="SVGID_13_" gradientUnits="userSpaceOnUse" x1="232.2091" y1="61.994" x2="257.2091" y2="769.994">
			<stop  offset="0" style="stop-color:#DFF9F9"/>
			<stop  offset="1" style="stop-color:#A4DBDA"/>
		</linearGradient>
		<path class="st13" d="M192.6,279.8l47.3,47.3l47.3-47.3l-47.3-47.3L192.6,279.8z M239.9,318.1l-38.3-38.3l38.3-38.3l38.3,38.3
			L239.9,318.1z"/>
		<linearGradient id="SVGID_14_" gradientUnits="userSpaceOnUse" x1="232.2855" y1="61.9913" x2="257.2856" y2="769.9913">
			<stop  offset="0" style="stop-color:#DFF9F9"/>
			<stop  offset="1" style="stop-color:#A4DBDA"/>
		</linearGradient>
		<polygon class="st14" points="208.9,279.8 240,248.8 271,279.8 240,310.9 		"/>
	</g>
	<g class="st0">
		<linearGradient id="SVGID_15_" gradientUnits="userSpaceOnUse" x1="390.1662" y1="56.4164" x2="415.1662" y2="764.4164">
			<stop  offset="0" style="stop-color:#DFF9F9"/>
			<stop  offset="1" style="stop-color:#A4DBDA"/>
		</linearGradient>
		<path class="st15" d="M358.3,493.5l47.3,47.3l47.3-47.3l-47.3-47.3L358.3,493.5z M405.6,531.8l-38.3-38.3l38.3-38.3l38.3,38.3
			L405.6,531.8z"/>
		<linearGradient id="SVGID_16_" gradientUnits="userSpaceOnUse" x1="390.1826" y1="56.4159" x2="415.1826" y2="764.4159">
			<stop  offset="0" style="stop-color:#DFF9F9"/>
			<stop  offset="1" style="stop-color:#A4DBDA"/>
		</linearGradient>
		<polygon class="st16" points="374.6,493.5 405.6,462.4 436.7,493.5 405.6,524.5 		"/>
	</g>
	<g class="st0">
		<linearGradient id="SVGID_17_" gradientUnits="userSpaceOnUse" x1="487.3039" y1="52.9864" x2="512.3039" y2="760.9865">
			<stop  offset="0" style="stop-color:#DFF9F9"/>
			<stop  offset="1" style="stop-color:#A4DBDA"/>
		</linearGradient>
		<path class="st17" d="M413.3,639.1l94.7,94.7l94.7-94.7L508,544.4L413.3,639.1z M508,715.7L431.3,639l76.7-76.7l76.7,76.7
			L508,715.7z"/>
		<linearGradient id="SVGID_18_" gradientUnits="userSpaceOnUse" x1="487.2729" y1="52.9875" x2="512.2729" y2="760.9875">
			<stop  offset="0" style="stop-color:#DFF9F9"/>
			<stop  offset="1" style="stop-color:#A4DBDA"/>
		</linearGradient>
		<polygon class="st18" points="445.9,639 508,576.9 570,639 508,701.1 		"/>
	</g>
	<g class="st0">
		<linearGradient id="SVGID_19_" gradientUnits="userSpaceOnUse" x1="239.2167" y1="61.7466" x2="264.2167" y2="769.7466">
			<stop  offset="0" style="stop-color:#DFF9F9"/>
			<stop  offset="1" style="stop-color:#A4DBDA"/>
		</linearGradient>
		<path class="st19" d="M192.7,83.3l47.3,47.3l47.3-47.3L240,36L192.7,83.3z M240,121.6l-38.3-38.3L240,45l38.3,38.3L240,121.6z"/>
		<linearGradient id="SVGID_20_" gradientUnits="userSpaceOnUse" x1="239.2931" y1="61.7439" x2="264.2931" y2="769.7439">
			<stop  offset="0" style="stop-color:#DFF9F9"/>
			<stop  offset="1" style="stop-color:#A4DBDA"/>
		</linearGradient>
		<polygon class="st20" points="209,83.3 240.1,52.3 271.1,83.3 240.1,114.4 		"/>
	</g>
	<g class="st0">
		<linearGradient id="SVGID_21_" gradientUnits="userSpaceOnUse" x1="111.0115" y1="66.2736" x2="136.0114" y2="774.2736">
			<stop  offset="0" style="stop-color:#DFF9F9"/>
			<stop  offset="1" style="stop-color:#A4DBDA"/>
		</linearGradient>
		<path class="st21" d="M19.6,159.8l94.7,94.7l94.7-94.7l-94.7-94.7L19.6,159.8z M114.3,236.5l-76.7-76.7l76.7-76.7l76.7,76.7
			L114.3,236.5z"/>
		<linearGradient id="SVGID_22_" gradientUnits="userSpaceOnUse" x1="111.005" y1="66.2738" x2="136.005" y2="774.2738">
			<stop  offset="0" style="stop-color:#DFF9F9"/>
			<stop  offset="1" style="stop-color:#A4DBDA"/>
		</linearGradient>
		<polygon class="st22" points="52.2,159.8 114.3,97.7 176.4,159.8 114.3,221.8 		"/>
	</g>
	<g class="st0">
		<linearGradient id="SVGID_23_" gradientUnits="userSpaceOnUse" x1="373.2859" y1="57.0125" x2="398.2859" y2="765.0125">
			<stop  offset="0" style="stop-color:#DFF9F9"/>
			<stop  offset="1" style="stop-color:#A4DBDA"/>
		</linearGradient>
		<path class="st23" d="M349.4,720.1l47.3,47.3l47.3-47.3l-47.3-47.3L349.4,720.1z M396.8,758.4l-38.3-38.3l38.3-38.3l38.3,38.3
			L396.8,758.4z"/>
		<linearGradient id="SVGID_24_" gradientUnits="userSpaceOnUse" x1="373.3133" y1="57.0115" x2="398.3133" y2="765.0115">
			<stop  offset="0" style="stop-color:#DFF9F9"/>
			<stop  offset="1" style="stop-color:#A4DBDA"/>
		</linearGradient>
		<polygon class="st24" points="365.7,720.2 396.7,689.1 427.8,720.2 396.7,751.2 		"/>
	</g>
</g>
</svg>
