<?xml version="1.0" encoding="utf-8"?>
<!-- Generator: Adobe Illustrator 19.2.0, SVG Export Plug-In . SVG Version: 6.00 Build 0)  -->
<svg version="1.1" id="Layer_1" xmlns="http://www.w3.org/2000/svg" xmlns:xlink="http://www.w3.org/1999/xlink" x="0px" y="0px"
	 viewBox="0 0 325 425" style="enable-background:new 0 0 325 425;" xml:space="preserve">
<style type="text/css">
	.st0{fill:url(#SVGID_1_);}
	.st1{fill:#2A3281;enable-background:new    ;}
</style>
<linearGradient id="SVGID_1_" gradientUnits="userSpaceOnUse" x1="69.301" y1="-81.4221" x2="251.8559" y2="234.7722" gradientTransform="matrix(1 0 0 1 0 177)">
	<stop  offset="0" style="stop-color:#FDC70C"/>
	<stop  offset="0.5081" style="stop-color:#FFF33B"/>
	<stop  offset="1" style="stop-color:#F3903F"/>
</linearGradient>
<path class="st0" d="M220,125.5V78.7l0,0c0-32.4-26.3-58.7-58.7-58.7s-58.7,26.3-58.7,58.7l0,0v47.9
	c-50.5,22.8-85.7,73.7-85.7,132.8c0,80.4,65.2,145.6,145.7,145.6s145.7-65.2,145.7-145.7C308.1,199.3,271.9,147.8,220,125.5z
	 M161.4,101.2c-12.4,0-22.5-10.1-22.5-22.5s10.1-22.5,22.5-22.5s22.5,10.1,22.5,22.5S173.8,101.2,161.4,101.2z"/>
<path class="st1" d="M72.3,170.7v49.9h49.9v-49.9L72.3,170.7 M143.6,170.7v14.2h7.1v-14.2H143.6 M157.8,170.7v7.1h7.1v7.1h-7.1v14.2
	h7.1v7.1h-14.2v7.1h-7.1v-14.2h7.1V192h-21.4v7.1h7.1v7.1h-7.1v14.2h7.1v7.1H115v7.1h-7v-7.1H72.3v14.2h7.1v-7.1h21.4v7.1H86.6v14.2
	h-7.1v-7.1h-7.1v42.7h7.1V263h21.4v-7.1h-7.1v-7.1h7.1v-7.1h7.1v14.2h7.1v7.1h7.1v-7.1h-7.1v-7.1h7.1v-7.1h7.1v14.2h7.1v7.1h-7.1
	v14.2h-7.1v-7.1H108v7.1h-7.1v-7.1H86.6v7.1h7.1v14.2h7.1v-7.1h7.1v-7.1h14.2v7.1H115v7.1h14.2V306h7.1v7.1h-7.1v35.6h14.2v-7.1h7.1
	v7.1h7.1v-14.2h7.1v-7.1h-21.4v14.2h-7.1v-28.5h7.1V306h-7.1v-21.4h7.1v7.1h14.2v7.1h7.1v7.1h-7.1v14.2h7.1V313h7.1v7.1h14.2v7.1
	h-7.1v7.1h-7.1v7.1h21.4v7.1h7.1v-7.1h-7.1v-7.1H186v-7.1h21.4v-7.1h7.1v7.1h7.1v7.1h-14.2v14.2h42.8v-49.9h-21.4v-7.1h7.1v-7.1
	h-7.1v7.1H222v-14.2h7.1v-14.2h7.1v14.2h7.1v7.1h7.1v-14.2h-7.1v-7.1h7.1v-21.4h-7.1v-14.2h-7.1v21.4h7.1v7.1h-14.2v7.1H222V256
	h-7.1v7.1h-7.1V256h-7.1v-14.2h-7.1v-7.1h7.1v-7.1h-7.1v-21.4h-21.4v-7.1h7.1v-14.2h7.1v7.1h7.1v-7.1h-7.1v-7.1h7.1v-7.1h-7.1v7.1
	h-7.1v7.1h-7.1v-7.1H165v-7.1L157.8,170.7 M200.6,170.7v49.9h49.9v-49.9L200.6,170.7 M115.1,177.8v35.6H79.5v-35.6L115.1,177.8
	 M129.3,177.8v7.1h7.1v-7.1H129.3 M243.3,177.8v35.6h-35.6v-35.6L243.3,177.8 M86.6,184.9v21.4H108v-21.4H86.6 M172.1,184.9v7.1H165
	v-7.1H172.1 M214.8,184.9v21.4h21.4v-21.4H214.8 M143.6,213.4v7.1h-7.1v-7.1H143.6 M157.8,213.4v7.1h7.1v-7.1h7.1v14.2h-7v7.1h-7.1
	v7.1h14.2v-7.1h14.2v-7.1h7.1v7.1h-7.1v7.1h7.1v7.1h-7.1v-7.1h-14.2V256h7.1v7.1h7.1V256h7.1v7.1h-7.1v7.1h-14.2V256H165v-7.1h-7.1
	v14.2h7.1v7.1h-21.4v7.1h7.1v7.1h-7.1v-7.1h-7.1v7.1h-7.1v-7.1h7.1v-7.1h7.1v-7.1h7.1V256h-14.2v-21.4h7.1v-7.1h7.1v7.1h7.1v-14.2
	h-7.1v-7.1L157.8,213.4 M186.3,213.4v7.1h-7.1v-7.1H186.3 M207.7,227.7v14.2h7.1v7.1H229v-7.1h-14.2v-14.2H207.7 M222,227.7v7.1h7.1
	v-7.1H222 M122.2,234.8v7.1h-7.1v-7.1H122.2 M143.6,234.8V249h7.1v-14.2H143.6 M207.7,263.3v7.1h-7.1v7.1h7.1v7.1h-14.2v-14.2h7.1
	v-7.1H207.7 M222,263.3v7.1h-7.1v-7.1H222 M172.1,277.5v7.1h7.1v-7.1h7.1v14.2h-7.1v7.1h7.1V313h-14.2v-7h7.1v-7.1h-7.1v-7.1h-14.2
	v-14.2L172.1,277.5 M214.8,291.8v21.4h-21.4v-21.4H214.8 M72.3,298.9v49.9h49.9v-49.9H72.3 M200.6,298.9v7.1h7.1v-7.1H200.6
	 M229.1,298.9v7.1h7.1v7.1h-7.1v7.1H222v-7.1h7.1V306H222v-7.1H229.1 M115.1,306v35.6H79.5V306H115.1 M86.6,313.2v21.4H108v-21.4
	H86.6 M243.3,327.4v14.2h-14.2v-7.1h7.1v-7.1H243.3z"/>
</svg>
