<?xml version="1.0" encoding="utf-8"?>
<!-- Generator: Adobe Illustrator 19.2.0, SVG Export Plug-In . SVG Version: 6.00 Build 0)  -->
<svg version="1.1" id="Layer_1" xmlns="http://www.w3.org/2000/svg" xmlns:xlink="http://www.w3.org/1999/xlink" x="0px" y="0px"
	 viewBox="0 0 325 425" style="enable-background:new 0 0 325 425;" xml:space="preserve">
<style type="text/css">
	.st0{fill:url(#SVGID_1_);}
	.st1{opacity:0.5;}
</style>
<linearGradient id="SVGID_1_" gradientUnits="userSpaceOnUse" x1="69.301" y1="169.5779" x2="251.8559" y2="485.7722" gradientTransform="matrix(1 0 0 1 0 -74)">
	<stop  offset="0" style="stop-color:#FDC70C"/>
	<stop  offset="0.5081" style="stop-color:#FFF33B"/>
	<stop  offset="1" style="stop-color:#F3903F"/>
</linearGradient>
<path class="st0" d="M220,125.5V78.7l0,0c0-32.4-26.3-58.7-58.7-58.7s-58.7,26.3-58.7,58.7l0,0v47.9
	c-50.5,22.8-85.7,73.7-85.7,132.8c0,80.4,65.2,145.6,145.7,145.6s145.7-65.2,145.7-145.7C308.1,199.3,271.9,147.8,220,125.5z
	 M161.4,101.2c-12.4,0-22.5-10.1-22.5-22.5s10.1-22.5,22.5-22.5s22.5,10.1,22.5,22.5S173.8,101.2,161.4,101.2z"/>
<g class="st1">
	<path d="M223.2,264.3c2.4,0,4.9,0,7.3,0l0,0c0,0.3,0,0.5,0,0.8c0,7,0,13.9,0,20.9c-2.4,0-4.8,0-7.3,0c0,2.6,0,4.9,0,7.4
		c2.5,0,4.9,0,7.3,0c0-0.4,0-0.7,0-1c0-2.1,0-4.2,0-6.2c2.3,0,4.7,0,7.1,0c0,4.9,0,9.7,0,14.6c4.9,0,9.6,0,14.5,0c0,2.5,0,4.8,0,7.2
		c-7.2,0-14.4,0-21.6,0c0,2.5,0,4.9,0,7.4c7.2,0,14.4,0,21.6,0c0,12.1,0,24.1,0,36.2c-16.9,0-33.7,0-50.7,0c0-2.4,0-4.7,0-7.1
		c-4.9,0-9.7,0-14.7,0c0,2.4,0,4.7,0,7.1c-4.9,0-9.6,0-14.4,0c0-2.3,0-4.6,0-7.1c2.3,0,4.7,0,7.1,0c0-2.5,0-4.9,0-7.3l0,0
		c2.4,0,4.9,0,7.3,0c0-2.5,0-4.9,0-7.4c-2.5,0-4.9,0-7.3,0c0,0,0,0,0,0c0-0.3,0.1-0.6,0.1-1c0-4.2,0-8.3,0-12.5c0-0.3,0-0.7,0.1-1.1
		c2.4,0,4.8,0,7.2,0c0-4.9,0-9.7,0-14.6c-2.5,0-4.9,0-7.3,0c0,0,0,0,0,0c0-2.4,0-4.8,0-7.2l0,0c2.4,0,4.9,0,7.3,0c0-2.5,0-4.9,0-7.4
		c-2.5,0-4.9,0-7.3,0l0,0c0-2.4,0-4.8,0-7.3c-4.8,0-9.6,0-14.4,0c0-2.4,0-4.7,0-7.2c7.2,0,14.4,0,21.7,0c0-2.5,0-4.8,0-7.2
		c2.4,0,4.8,0,7.2,0c0,4.8,0,9.6,0,14.4c2.5,0,4.9,0,7.4,0c0-2.4,0-4.7,0-7.2c2.5,0,4.8,0,7.2,0c0,2.4,0,4.7,0,7.2
		c4.9,0,9.7,0,14.6,0c0-0.2,0.1-0.4,0.1-0.6c0-4.5,0-9.1,0-13.6C223.3,264.5,223.2,264.4,223.2,264.3
		C223.2,264.2,223.2,264.3,223.2,264.3z M230.5,337.1c0,2.4,0,4.7,0,7.1c4.9,0,9.7,0,14.5,0c0-4.9,0-9.7,0-14.5c-2.4,0-4.8,0-7.2,0
		c0,2.4,0,4.8,0,7.2c-2.4,0-4.8,0-7.1,0c0-4.8,0-9.7,0-14.5c-2.6,0-5,0-7.4,0c0,2.4,0,4.8,0,7.1c-2.4,0-4.8,0-7.2,0
		c0-2.4,0-4.7,0-7.1c-2.5,0-4.9,0-7.4,0c0,2.4,0,4.8,0,7.2c-4.9,0-9.7,0-14.5,0c0,2.5,0,4.9,0,7.3c4.9,0,9.7,0,14.6,0
		c0-2.4,0-4.8,0-7.2c2.4,0,4.8,0,7.2,0c0,2.4,0,4.8,0,7.2c0.5,0,0.8,0,1.1,0C221.5,337.1,226,337.1,230.5,337.1z M216,293.4
		c-7.3,0-14.6,0-21.8,0c0,7.3,0,14.5,0,21.8c7.3,0,14.5,0,21.8,0C216,307.9,216,300.7,216,293.4z"/>
	<path d="M150.5,264.3c0,4.8,0,9.5,0,14.4c-2.5,0-4.8,0-7.2,0c0-2.4,0-4.8,0-7.2c-2.5,0-4.8,0-7.3,0c0-2.4,0-4.8,0-7.3
		c-2.5,0-4.8,0-7.3,0c0-2.4,0-4.8,0-7.2c-2.5,0-4.9,0-7.3,0l0,0c0-2.4,0-4.8,0-7.3c-4.9,0-9.7,0-14.6,0c0-4.9,0-9.7,0-14.5l0,0
		c2.4,0,4.8,0,7.1,0c0,2.4,0,4.8,0,7.3c2.6,0,4.9,0,7.4,0c0-2.5,0-4.9,0-7.3c-0.4,0-0.7,0-1,0c-2.1,0-4.2,0-6.2,0c0-2.3,0-4.7,0-7.1
		c12.1,0,24.2,0,36.3,0c0,2.3,0,4.7,0,7.1c-2.4,0-4.7,0-7.1,0c0,4.9,0,9.7,0,14.6c2.4,0,4.8,0,7.3,0c0-2.4,0-4.7,0-7.1
		c19.4,0,38.7,0,58,0c0,2.4,0,4.7,0,7.1c2.5,0,4.9,0,7.4,0c0-2.4,0-4.7,0-7.1c4.8,0,9.6,0,14.4,0c0,2.4,0,4.7,0,7.1
		c-2.4,0-4.7,0-7.1,0c0,0.3-0.1,0.5-0.1,0.7c0,4.6,0,9.1,0,13.7c0,0.1,0,0.2,0,0.2c0,0,0,0,0,0c-2.1,0-4.1,0-6.2-0.1
		c-0.3,0-0.7,0-1.1-0.1c0-2.4,0-4.7,0-7.1c-2.5,0-4.9,0-7.3,0c0,2.3,0,4.7,0,7.1c-4.9,0-9.6,0-14.5,0c0-2.4,0-4.7,0-7.1
		c-2.5,0-4.8,0-7.3,0c0,2.3,0,4.7,0,7.1c-4.9,0-9.7,0-14.5,0c0-4.8,0-9.5,0-14.3c-4.9,0-9.7,0-14.6,0c0,4.9,0,9.7,0,14.5l0,0
		c-2.4,0-4.8,0-7.1,0c0-2.4,0-4.8,0-7.2c-2.6,0-4.9,0-7.4,0c0,2.4,0,4.8,0,7.2c0.4,0,0.8,0,1.1,0
		C146.4,264.3,148.5,264.3,150.5,264.3z M128.7,242.4c2.5,0,4.9,0,7.3,0c0-2.5,0-4.8,0-7.2c-2.5,0-4.9,0-7.3,0
		C128.7,237.6,128.7,240,128.7,242.4z"/>
	<path d="M70.6,351.4c0-16.9,0-33.7,0-50.7c16.9,0,33.7,0,50.6,0c0,16.9,0,33.7,0,50.7C104.4,351.4,87.5,351.4,70.6,351.4z
		 M77.8,344.2c12.2,0,24.2,0,36.3,0c0-12.2,0-24.2,0-36.4c-12.1,0-24.2,0-36.3,0C77.8,320,77.8,332.1,77.8,344.2z"/>
	<path d="M201.6,169.7c16.9,0,33.7,0,50.6,0c0,16.9,0,33.7,0,50.6c-16.8,0-33.7,0-50.6,0C201.6,203.5,201.6,186.7,201.6,169.7z
		 M208.7,213.3c12.1,0,24.2,0,36.3,0c0-12.2,0-24.3,0-36.4c-12.1,0-24.2,0-36.3,0C208.7,189,208.7,201.1,208.7,213.3z"/>
	<path d="M121.2,220.4c-16.9,0-33.7,0-50.6,0c0-16.9,0-33.7,0-50.6c16.9,0,33.7,0,50.6,0C121.2,186.6,121.2,203.5,121.2,220.4z
		 M114,213.3c0-12.2,0-24.3,0-36.4c-12.1,0-24.2,0-36.3,0c0,12.1,0,24.2,0,36.4C89.9,213.3,101.9,213.3,114,213.3z"/>
	<path d="M165,293.4c2.4,0,4.9,0,7.3,0l0,0c0,2.4,0,4.7,0,7.1c0,0,0.1,0.1,0.1,0.1c2.4,0,4.8,0,7.1,0l0,0c0,2.4,0,4.8,0,7.3
		c-7.3,0-14.5,0-21.8,0c0,5,0,9.8,0,14.6l0,0c-2.4,0-4.8,0-7.3,0c0,4.8,0,9.6,0,14.4c-2.4,0-4.7,0-7.2,0c0-4.8,0-9.6,0-14.4
		c-2.5,0-4.9,0-7.4,0c0,9.6,0,19.2,0,28.9c-2.4,0-4.7,0-7.1,0c0-12,0-24,0-36.1c2.4,0,4.7,0,7.2,0c0-2.5,0-4.8,0-7.2
		c2.4,0,4.8,0,7.2,0c0,2.4,0,4.7,0,7.1c2.5,0,4.9,0,7.4,0c0-4.8,0-9.6,0-14.5c4.8,0,9.6,0,14.5,0C165,298.2,165,295.8,165,293.4
		L165,293.4z"/>
	<path d="M230.5,264.3c0-2.4,0-4.7,0-7.2c4.9,0,9.6,0,14.4,0c0-2.5,0-4.9,0-7.4c-2.3,0-4.6,0-7,0c0-7.3,0-14.5,0-21.7
		c2.3,0,4.6,0,7,0c0,4.8,0,9.6,0,14.5c2.5,0,4.8,0,7.3,0c0,7.3,0,14.4,0,21.7c-2.4,0-4.7,0-7.2,0c0,2.5,0,4.9,0,7.4
		c2.4,0,4.7,0,7.2,0c0,4.9,0,9.6,0,14.4c-2.3,0-4.6,0-7.1,0c0-2.3,0-4.7,0-7.2c-2.4,0-4.8,0-7.2,0c0-4.9,0-9.7,0-14.5
		C235.3,264.2,232.9,264.2,230.5,264.3C230.5,264.2,230.5,264.3,230.5,264.3z"/>
	<path d="M92.3,249.7c0.3,0,0.6,0.1,1,0.1c4.2,0,8.3,0,12.5,0c0.3,0,0.6,0,1,0.1c0,2.4,0,4.7,0,7.1c-2.4,0-4.8,0-7.2,0
		c0,2.5,0,4.8,0,7.2c-7.3,0-14.4,0-21.7,0c0,9.7,0,19.4,0,29.1c-2.4,0-4.8,0-7.2,0c0-12,0-24,0-36.1c2.4,0,4.7,0,7.2,0
		c0-2.4,0-4.8,0-7.3c2.5,0,4.8-0.1,7.2-0.1l0,0c0,2.4,0,4.9,0,7.3c2.5,0,4.9,0,7.4,0C92.3,254.5,92.3,252.1,92.3,249.7L92.3,249.7z"
		/>
	<path d="M143.2,198.8c-0.3,0-0.6-0.1-1-0.1c-4.2,0-8.3,0-12.5,0c-0.3,0-0.6,0-1-0.1c0-2.4,0-4.7,0-7.1c2.4,0,4.8,0,7.2,0
		c0-2.5,0-4.9,0-7.3c-2.4,0-4.7,0-7.2,0c0-2.4,0-4.8,0-7.1c2.4,0,4.7,0,7.2,0c0-2.4,0-4.8,0-7.2c2.4,0,4.8,0,7.2,0
		c0,4.8,0,9.5,0,14.4c2.5,0,4.9,0,7.4,0c0-2.3,0-4.7,0-7.1c4.8,0,9.6,0,14.4,0c0,2.3,0,4.6,0,7c-2.3,0-4.7,0-7.1,0c0,5,0,9.8,0,14.6
		l0,0c-2.4,0-4.8,0-7.2,0l0,0c0-2.4,0-4.9,0-7.3c-2.5,0-4.9,0-7.4,0C143.2,194,143.2,196.4,143.2,198.8L143.2,198.8z"/>
	<path d="M135.9,271.6c0,4.8,0,9.6,0,14.5c4.9,0,9.7,0,14.5,0c0,2.4,0,4.7,0,7.2c-2.4,0-4.8,0-7.2,0c0,2.5,0,4.8,0,7.3
		c-2.4,0-4.8,0-7.3,0c0,2.5,0,4.8,0,7.2c-2.4,0-4.8,0-7.2,0c0-7.3,0-14.5,0-21.8c-2.5,0-4.8,0-7.2,0c0-2.4,0-4.7,0-7.1
		c2.4,0,4.7,0,7.2,0c0-2.5,0-4.8,0-7.3C131.1,271.6,133.4,271.6,135.9,271.6z"/>
	<path d="M157.8,198.8c2.4,0,4.8,0,7.3,0c0-2.4,0-4.8,0-7.2c2.5,0,4.8,0,7.3,0c0-2.5,0-4.8,0-7.2c2.4,0,4.7,0,7.1,0
		c0,2.3,0,4.7,0,7.2c2.5,0,4.8,0,7.3,0c0,2.4,0,4.8,0,7.2c-2.4,0-4.7,0-7.2,0c0,2.5,0,4.8,0,7.2c-7.3,0-14.4,0-21.7,0
		C157.8,203.6,157.8,201.2,157.8,198.8C157.8,198.8,157.8,198.8,157.8,198.8z"/>
	<path d="M179.5,337.1c-2.4,0-4.8,0-7.3,0c0,2.4,0,4.7,0,7.1c-2.5,0-4.8,0-7.3,0c0,2.5,0,4.8,0,7.2c-2.4,0-4.7,0-7,0
		c0-4.7,0-9.5,0-14.3c2.4,0,4.7,0,7,0c0-2.5,0-4.9,0-7.4c-2.3,0-4.7,0-7.1,0c0-2.5-0.1-4.8-0.1-7.2l0,0c4.8,0,9.6,0,14.5,0
		c0,2.5,0,4.8,0,7.2c2.5,0,4.9,0,7.3,0l0,0C179.5,332.1,179.5,334.6,179.5,337.1L179.5,337.1z"/>
	<path d="M106.9,235.2c-2.4,0-4.8,0-7.3,0c0,2.4,0,4.8,0,7.2c-2.5,0-4.9,0.1-7.2,0.1l0,0c0-2.4,0-4.9,0-7.3c-2.5,0-4.9,0-7.4,0
		c0,2.5,0,4.9,0,7.3l0,0c-2,0-4,0-6.1-0.1c-0.3,0-0.6,0-1-0.1c0-2.4,0-4.8,0-7.2c-2.5,0-4.8,0-7.2,0c0-2.4,0-4.7,0-7.1
		c12,0,24,0,36.1,0C106.8,230.4,106.8,232.8,106.9,235.2C106.9,235.2,106.9,235.2,106.9,235.2z"/>
	<path d="M179.4,235.1c-7.2,0-14.3,0-21.5,0c0-7.2,0-14.4,0-21.6c2.3,0,4.6,0,7,0c0,4.8,0,9.6,0,14.4c2.5,0,4.9,0,7.4,0
		c0-4.8,0-9.6,0-14.4c2.4,0,4.8,0,7.1,0C179.4,220.7,179.4,227.8,179.4,235.1z"/>
	<path d="M194.1,227.9c-2.4,0-4.7,0-7.2,0c0-4.9,0-9.7,0-14.6c-2.4,0-4.8,0-7.2,0c0-2.4,0-4.8,0-7.2c2.4,0,4.7,0,7.2,0
		c0-2.5,0-4.8,0-7.2c2.4,0,4.8,0,7.2,0C194.1,208.6,194.1,218.3,194.1,227.9L194.1,227.9z"/>
	<path d="M121.3,286.2c0,2.4,0,4.7,0,7.1c-7.2,0-14.4,0-21.6,0c0-2.3,0-4.7,0-7.1C106.9,286.2,114,286.2,121.3,286.2z"/>
	<path d="M85.1,293.2c0-7.2,0-14.4,0-21.6c2.4,0,4.7,0,7.1,0c0,7.2,0,14.4,0,21.6C89.8,293.2,87.5,293.2,85.1,293.2z"/>
	<path d="M150.6,198.8c0,0.3-0.1,0.7-0.1,1c0,6.5,0,13,0,19.6c0,0.4,0,0.7-0.1,1.1c-2.4,0-4.7,0-7.1,0c0-0.4-0.1-0.8-0.1-1.1
		c0-6.5,0-13,0-19.6c0-0.3,0-0.7-0.1-1c0,0,0,0,0,0C145.6,198.8,148.1,198.8,150.6,198.8L150.6,198.8z"/>
	<path d="M135.9,206.2c0,4.8,0,9.6,0,14.3c-2.4,0-4.7,0-7.1,0c0-4.8,0-9.5,0-14.3C131.1,206.2,133.4,206.2,135.9,206.2z"/>
	<path d="M215.8,242.4c-2.4,0-4.7,0-7.1,0c0-4.8,0-9.6,0-14.4c2.4,0,4.7,0,7.1,0C215.8,232.8,215.8,237.5,215.8,242.4z"/>
	<path d="M165,293.4c-2,0-4,0-6.1-0.1c-0.3,0-0.6,0-1,0c0-4.9,0-9.6,0-14.4c2.3,0,4.6,0,7,0c0,0.4,0,0.7,0,1c0,4.2,0,8.4,0,12.6
		C164.9,292.8,165,293.1,165,293.4C165,293.4,165,293.4,165,293.4z"/>
	<path d="M114.2,271.6c2.4,0,4.7,0,7,0c0,2.3,0,4.7,0,7.1c-2.3,0-4.6,0-7,0C114.2,276.3,114.2,274,114.2,271.6z"/>
	<path d="M172.3,293.4c0-2.4,0-4.8,0-7.3c2.5,0,4.8-0.1,7.2-0.1l0,0c0,2.5,0,4.9,0,7.4c0,0,0,0,0,0
		C177.1,293.4,174.7,293.4,172.3,293.4L172.3,293.4z"/>
	<path d="M92.3,242.5c0,2.4,0,4.8,0,7.2l0,0c-2.5,0-4.9,0-7.4,0c0,0,0,0,0,0c0-2.4,0-4.8,0-7.2l0,0
		C87.4,242.5,89.9,242.5,92.3,242.5L92.3,242.5z"/>
	<path d="M223.4,228c2.4,0,4.7,0,7.1,0c0,2.4,0,4.7,0,7.1c-2.4,0-4.7,0-7.1,0C223.4,232.7,223.4,230.4,223.4,228z"/>
	<path d="M194.1,227.9c2.4,0,4.7,0,7.2,0c0,2.4,0,4.8,0,7.2c-2.4,0-4.7,0-7.1,0C194.2,232.7,194.1,230.3,194.1,227.9
		C194.1,227.9,194.1,227.9,194.1,227.9z"/>
	<path d="M186.9,177c0-2.4,0-4.7,0-7.2c2.4,0,4.8,0,7.1,0c0,2.4,0,4.7,0,7.1C191.6,177,189.2,177,186.9,177L186.9,177z"/>
	<path d="M121.4,257c0,2,0,4-0.1,6.1c0,0.3,0,0.6,0,1c-2.4,0-4.8,0-7.1,0c0-2.3,0-4.6,0-7.1C116.7,257,119,257,121.4,257
		C121.4,257,121.4,257,121.4,257z"/>
	<path d="M186.9,177c0,2,0,4-0.1,6.1c0,0.3,0,0.6,0,1c-2.4,0-4.8,0-7.1,0c0-2.3,0-4.6,0-7.1C182.1,177,184.5,177,186.9,177
		C186.9,177,186.9,177,186.9,177z"/>
	<path d="M157.8,264.2c2.4,0,4.7,0,7.1,0c0,2.4,0,4.8,0,7.1c-2.3,0-4.6,0-7,0C157.8,269,157.8,266.6,157.8,264.2
		C157.8,264.2,157.8,264.2,157.8,264.2z"/>
	<path d="M128.6,264.3c0,2.4,0,4.7,0,7c-2.3,0-4.7,0-7.1,0c0-2.3,0-4.7,0-7C123.9,264.3,126.2,264.3,128.6,264.3z"/>
	<path d="M114,264.3c0,2.4,0,4.7,0,7c-2.4,0-4.7,0-7.1,0c0-2.3,0-4.6,0-7C109.3,264.3,111.6,264.3,114,264.3z"/>
	<path d="M70.6,242.6c2.4,0,4.7,0,7,0c0,2.3,0,4.7,0,7.1c-2.3,0-4.7,0-7,0C70.6,247.3,70.6,245,70.6,242.6z"/>
	<path d="M208.6,300.7c0,2.4,0,4.7,0,7c-2.4,0-4.7,0-7.1,0c0-2.3,0-4.6,0-7C203.8,300.7,206.2,300.7,208.6,300.7z"/>
	<path d="M85.1,315.3c7.2,0,14.3,0,21.6,0c0,7.2,0,14.4,0,21.6c-7.2,0-14.3,0-21.6,0C85.1,329.7,85.1,322.5,85.1,315.3z"/>
	<path d="M237.6,205.9c-7.3,0-14.4,0-21.5,0c0-7.2,0-14.4,0-21.6c7.1,0,14.3,0,21.5,0C237.6,191.5,237.6,198.7,237.6,205.9z"/>
	<path d="M85.2,205.9c-0.3-0.6-0.3-20.5-0.1-21.6c7.1,0,14.3,0,21.5,0c0,7.2,0,14.4,0,21.6C99.5,205.9,92.3,205.9,85.2,205.9z"/>
</g>
</svg>
