<?xml version="1.0" encoding="utf-8"?>
<!-- Generator: Adobe Illustrator 19.2.0, SVG Export Plug-In . SVG Version: 6.00 Build 0)  -->
<svg version="1.1" id="Layer_1" xmlns="http://www.w3.org/2000/svg" xmlns:xlink="http://www.w3.org/1999/xlink" x="0px" y="0px"
	 viewBox="0 0 325 425" enable-background="new 0 0 325 425" xml:space="preserve">
<linearGradient id="SVGID_1_" gradientUnits="userSpaceOnUse" x1="69.2635" y1="330.4005" x2="251.8184" y2="14.2062" gradientTransform="matrix(1 0 0 -1 0 426)">
	<stop  offset="0" style="stop-color:#FDC70C"/>
	<stop  offset="0.5081" style="stop-color:#FFF33B"/>
	<stop  offset="1" style="stop-color:#F3903F"/>
</linearGradient>
<path fill="url(#SVGID_1_)" d="M220,125.5V78.7l0,0c0-32.4-26.3-58.7-58.7-58.7s-58.7,26.3-58.7,58.7l0,0v47.9
	c-50.5,22.8-85.7,73.7-85.7,132.8c0,80.4,65.2,145.6,145.7,145.6s145.7-65.2,145.7-145.7C308.1,199.3,271.9,147.8,220,125.5z
	 M161.4,101.2c-12.4,0-22.5-10.1-22.5-22.5s10.1-22.5,22.5-22.5s22.5,10.1,22.5,22.5S173.8,101.2,161.4,101.2z"/>
</svg>
