<?xml version="1.0" encoding="utf-8"?>
<!-- Generator: Adobe Illustrator 19.2.0, SVG Export Plug-In . SVG Version: 6.00 Build 0)  -->
<svg version="1.1" id="Layer_1" xmlns="http://www.w3.org/2000/svg" xmlns:xlink="http://www.w3.org/1999/xlink" x="0px" y="0px"
	 viewBox="0 0 291.3 385" style="enable-background:new 0 0 291.3 385;" xml:space="preserve">
<style type="text/css">
	.st0{fill:url(#SVGID_1_);}
</style>
<linearGradient id="SVGID_1_" gradientUnits="userSpaceOnUse" x1="52.4286" y1="75.5907" x2="234.9835" y2="391.7851">
	<stop  offset="0" style="stop-color:#FDC70C"/>
	<stop  offset="0.5081" style="stop-color:#FFF33B"/>
	<stop  offset="1" style="stop-color:#F3903F"/>
</linearGradient>
<path class="st0" d="M203.1,105.5V58.7h0c0-32.4-26.3-58.7-58.7-58.7c-32.4,0-58.7,26.3-58.7,58.7h0v47.9
	C35.2,129.4,0,180.3,0,239.4C0,319.8,65.2,385,145.7,385s145.7-65.2,145.7-145.7C291.3,179.3,255,127.8,203.1,105.5z M144.5,81.2
	c-12.4,0-22.5-10.1-22.5-22.5c0-12.4,10.1-22.5,22.5-22.5c12.4,0,22.5,10.1,22.5,22.5C167,71.1,156.9,81.2,144.5,81.2z"/>
</svg>
