<?xml version="1.0" encoding="utf-8"?>
<!-- Generator: Adobe Illustrator 19.2.0, SVG Export Plug-In . SVG Version: 6.00 Build 0)  -->
<svg version="1.1" id="Layer_1" xmlns="http://www.w3.org/2000/svg" xmlns:xlink="http://www.w3.org/1999/xlink" x="0px" y="0px"
	 viewBox="0 0 1280 361.7" enable-background="new 0 0 1280 361.7" xml:space="preserve">
<g opacity="0.5">
	<path opacity="0.5" fill="#A5DBDA" d="M152.7-351.1L-36.6-161.8L152.7,27.5L342-161.8L152.7-351.1z M-0.6-161.8l153.3-153.3
		l153.3,153.3L152.7-8.4L-0.6-161.8z"/>
</g>
<g opacity="0.5">
	<path opacity="0.5" fill="#A5DBDA" d="M66.5-36l-189.3,189.3L66.5,342.7l189.3-189.3L66.5-36z M-86.9,153.3L66.5,0l153.3,153.3
		L66.5,306.7L-86.9,153.3z"/>
	
		<rect x="-21.3" y="65.5" transform="matrix(0.7071 -0.7071 0.7071 0.7071 -88.9586 91.9305)" opacity="0.5" fill="#A5DBDA" width="175.7" height="175.7"/>
</g>
<g opacity="0.5">
	<path opacity="0.5" fill="#A5DBDA" d="M354.1-149.7L164.8,39.6l189.3,189.3L543.4,39.6L354.1-149.7z M200.8,39.6l153.3-153.3
		L507.5,39.6L354.1,193L200.8,39.6z"/>
	
		<rect x="266.3" y="-48.2" transform="matrix(0.7071 -0.7071 0.7071 0.7071 75.7049 261.9985)" opacity="0.5" fill="#A5DBDA" width="175.7" height="175.7"/>
</g>
<g opacity="0.45">
	<path opacity="0.5" fill="#A5DBDA" d="M255.8,172.4l-94.7,94.7l94.7,94.7l94.7-94.7L255.8,172.4z M179.1,267.1l76.7-76.7l76.7,76.7
		l-76.7,76.7L179.1,267.1z"/>
	
		<rect x="211.9" y="223.2" transform="matrix(0.7071 -0.7071 0.7071 0.7071 -113.9272 259.1091)" opacity="0.5" fill="#A5DBDA" width="87.8" height="87.8"/>
</g>
<g opacity="0.45">
	<path opacity="0.5" fill="#A5DBDA" d="M532,67.6l-94.7,94.7l94.7,94.7l94.7-94.7L532,67.6z M455.3,162.2L532,85.5l76.7,76.7
		L532,238.9L455.3,162.2z"/>
	
		<rect x="488.1" y="118.3" transform="matrix(0.7071 -0.7071 0.7071 0.7071 41.1079 423.6826)" opacity="0.5" fill="#A5DBDA" width="87.8" height="87.8"/>
</g>
<g opacity="0.5">
	<path opacity="0.5" fill="#A5DBDA" d="M702.6-197.7L513.3-8.4l189.3,189.3L891.9-8.4L702.6-197.7z M549.3-8.4l153.3-153.3L856-8.4
		L702.6,144.9L549.3-8.4z"/>
	
		<rect x="614.8" y="-96.3" transform="matrix(0.7071 -0.7071 0.7071 0.7071 211.7522 494.3658)" opacity="0.5" fill="#A5DBDA" width="175.7" height="175.7"/>
</g>
<g opacity="0.5">
	<path opacity="0.5" fill="#A5DBDA" d="M1110.1-274.4L920.8-85.1l189.3,189.3l189.3-189.3L1110.1-274.4z M956.7-85.1l153.3-153.3
		l153.3,153.3L1110.1,68.2L956.7-85.1z"/>
	
		<rect x="1022.3" y="-172.9" transform="matrix(0.7071 -0.7071 0.7071 0.7071 385.3129 760.0306)" opacity="0.5" fill="#A5DBDA" width="175.7" height="175.7"/>
</g>
<g opacity="0.45">
	<path opacity="0.5" fill="#A5DBDA" d="M956.7-27.1l-94.7,94.7l94.7,94.7l94.7-94.7L956.7-27.1z M880.1,67.6l76.7-76.7l76.7,76.7
		l-76.7,76.7L880.1,67.6z"/>
	
		<rect x="912.8" y="23.6" transform="matrix(0.7071 -0.7071 0.7071 0.7071 232.4521 696.3102)" opacity="0.5" fill="#A5DBDA" width="87.8" height="87.8"/>
</g>
<g opacity="0.45">
	<path opacity="0.5" fill="#A5DBDA" d="M808.2,95.7l-94.7,94.7l94.7,94.7l94.7-94.7L808.2,95.7z M731.5,190.4l76.7-76.7l76.7,76.7
		l-76.7,76.7L731.5,190.4z"/>
	
		<rect x="764.2" y="146.5" transform="matrix(0.7071 -0.7071 0.7071 0.7071 102.0692 627.2228)" opacity="0.5" fill="#A5DBDA" width="87.8" height="87.8"/>
</g>
<g opacity="0.4">
	<path opacity="0.5" fill="#A5DBDA" d="M1062.8,84.9l-47.3,47.3l47.3,47.3l47.3-47.3L1062.8,84.9z M1024.4,132.2l38.3-38.3
		l38.3,38.3l-38.3,38.3L1024.4,132.2z"/>
	
		<rect x="1040.8" y="110.3" transform="matrix(0.7071 -0.7071 0.7071 0.7071 217.7752 790.2179)" opacity="0.5" fill="#A5DBDA" width="43.9" height="43.9"/>
</g>
<g opacity="0.4">
	<path opacity="0.5" fill="#A5DBDA" d="M420.8,199.9l-47.3,47.3l47.3,47.3l47.3-47.3L420.8,199.9z M382.4,247.2l38.3-38.3l38.3,38.3
		l-38.3,38.3L382.4,247.2z"/>
	
		<rect x="398.8" y="225.3" transform="matrix(0.7071 -0.7071 0.7071 0.7071 -51.5872 369.9412)" opacity="0.5" fill="#A5DBDA" width="43.9" height="43.9"/>
</g>
<g opacity="0.4">
	<path opacity="0.5" fill="#A5DBDA" d="M652.4,161.6l-47.3,47.3l47.3,47.3l47.3-47.3L652.4,161.6z M614.1,208.9l38.3-38.3l38.3,38.3
		l-38.3,38.3L614.1,208.9z"/>
	
		<rect x="630.5" y="186.9" transform="matrix(0.7071 -0.7071 0.7071 0.7071 43.3737 522.5231)" opacity="0.5" fill="#A5DBDA" width="43.9" height="43.9"/>
</g>
</svg>
