<?xml version="1.0" encoding="utf-8"?>
<!-- Generator: Adobe Illustrator 19.2.0, SVG Export Plug-In . SVG Version: 6.00 Build 0)  -->
<svg version="1.1" id="Layer_1" xmlns="http://www.w3.org/2000/svg" xmlns:xlink="http://www.w3.org/1999/xlink" x="0px" y="0px"
	 viewBox="0 0 592.5 225.1" style="enable-background:new 0 0 592.5 225.1;" xml:space="preserve">
<style type="text/css">
	.st0{fill:url(#SVGID_1_);}
	.st1{fill:url(#SVGID_2_);}
	.st2{fill:#FDC70C;}
	.st3{fill:url(#SVGID_3_);}
	.st4{fill:url(#SVGID_4_);}
	.st5{fill:#FFFFFF;}
</style>
<title>logo</title>
<linearGradient id="SVGID_1_" gradientUnits="userSpaceOnUse" x1="338.05" y1="65.1" x2="338.05" y2="219.8">
	<stop  offset="0" style="stop-color:#B29172"/>
	<stop  offset="4.044497e-02" style="stop-color:#A5876A"/>
	<stop  offset="0.1672" style="stop-color:#826A55"/>
	<stop  offset="0.3013" style="stop-color:#645343"/>
	<stop  offset="0.4432" style="stop-color:#4E4135"/>
	<stop  offset="0.5962" style="stop-color:#3D342C"/>
	<stop  offset="0.7684" style="stop-color:#342C26"/>
	<stop  offset="1" style="stop-color:#312A24"/>
</linearGradient>
<path class="st0" d="M345.5,217c0,1.4,1,2.8-17.2,2.8c-18.2-0.4-27.3-1.2-27.3-2.4v-99.6h-8.1c-3.2,0-5.8-2-7.6-5.8
	c-1.9-3.9-2.9-8.7-2.9-14.5c0-21.6,6.4-32.4,19.2-32.4c9,0,16.5,2.8,22.5,8.2c6,5.5,9,11.8,9,18.8c4.2-8.2,9.8-14.7,16.9-19.6
	s14.3-7.4,21.8-7.4c11.6,0,18.6,3,21,9c0.6,1.6,0.9,4,0.9,7c0,3.1-1,8.7-2.8,16.7c-1.9,8-3.9,13.8-5.9,17.4s-3.2,5.4-3.6,5.4
	s-2.2-0.8-5.5-2.2s-16.4-2.9-19-2.9c-7.6,0-11.4,6-11.4,18V217L345.5,217z"/>
<linearGradient id="SVGID_2_" gradientUnits="userSpaceOnUse" x1="464.6964" y1="65.6" x2="464.6964" y2="219.9">
	<stop  offset="0" style="stop-color:#B29172"/>
	<stop  offset="4.044497e-02" style="stop-color:#A5876A"/>
	<stop  offset="0.1672" style="stop-color:#826A55"/>
	<stop  offset="0.3013" style="stop-color:#645343"/>
	<stop  offset="0.4432" style="stop-color:#4E4135"/>
	<stop  offset="0.5962" style="stop-color:#3D342C"/>
	<stop  offset="0.7684" style="stop-color:#342C26"/>
	<stop  offset="1" style="stop-color:#312A24"/>
</linearGradient>
<path class="st1" d="M401.9,70.2c0-3.2-1.6-4.4,16.6-4.4c17,0.6,25.5,1.9,25.5,3.9v55l29.7-54.9c1.4-3,2.2-4.2,17.8-4.2
	c15.6,0,25.6,1,30,3l-39,63.6l45,84.3c0.4,0.8-3.4,1.5-11.2,2c-7.9,0.5-14.5,0.8-19.7,0.8c-19.2,0-21.8-1.2-23.2-3l-29.7-66.6V216
	c0,2.6-8.8,3.9-26.2,3.9c-17.5,0-15.5-1.6-15.5-4.1L401.9,70.2L401.9,70.2z"/>
<path class="st2" d="M569,173.4l-0.1-8.1l0,0c0-5.6-4.5-10.1-10.1-10.1s-10.1,4.5-10.1,10.1l0,0v8.3c-8.7,3.9-14.8,12.7-14.8,22.9
	c0,13.9,11.2,25.2,25.2,25.1c13.9,0,25.2-11.2,25.1-25.2C584.2,186.2,577.9,177.2,569,173.4z M558.8,169.2c-2.2,0-4-1.8-3.9-3.9
	c0-2.2,1.8-4,3.9-3.9c2.2,0,4,1.8,3.9,3.9C562.7,167.5,561,169.2,558.8,169.2z"/>
<linearGradient id="SVGID_3_" gradientUnits="userSpaceOnUse" x1="71.05" y1="3.5" x2="71.05" y2="221.5">
	<stop  offset="0" style="stop-color:#B29172"/>
	<stop  offset="4.044497e-02" style="stop-color:#A5876A"/>
	<stop  offset="0.1672" style="stop-color:#826A55"/>
	<stop  offset="0.3013" style="stop-color:#645343"/>
	<stop  offset="0.4432" style="stop-color:#4E4135"/>
	<stop  offset="0.5962" style="stop-color:#3D342C"/>
	<stop  offset="0.7684" style="stop-color:#342C26"/>
	<stop  offset="1" style="stop-color:#312A24"/>
</linearGradient>
<path class="st3" d="M137.4,154.8v-13.5c0-15.1-12.2-27.3-27.3-27.3l0,0v-3.2l0,0c15.1,0,27.3-12.2,27.3-27.3V69.9
	c0-36.5-29.9-66.4-66.4-66.4l0,0C34.6,3.5,4.7,33.4,4.7,69.9v8.3c0,2.5,2,4.6,4.6,4.6h45.2c-4.7-4.6-7.5-11.2-7-18.4
	c0.7-11.7,10.1-21.2,21.8-22.1C83.9,41.2,96,53.3,94.8,68c-1,11.9-12.1,21.7-24.1,21.7H9.2c-2.5,0-4.5,2-4.5,4.5v18.3v19.2
	c0,2.5,2,4.6,4.6,4.6h61.3c12,0,23.1,9.7,24.1,21.7c1.2,14.6-10.9,26.8-25.5,25.7c-11.7-0.9-21-10.4-21.8-22.1
	c-0.4-7.2,2.3-13.8,7-18.4h-45c-2.6,0-4.7,2.1-4.7,4.7v7.2c0,36.5,29.9,66.4,66.4,66.4l0,0C107.6,221.1,137.4,191.3,137.4,154.8z"/>
<linearGradient id="SVGID_4_" gradientUnits="userSpaceOnUse" x1="212.9" y1="65" x2="212.9" y2="221">
	<stop  offset="0" style="stop-color:#B29172"/>
	<stop  offset="4.044497e-02" style="stop-color:#A5876A"/>
	<stop  offset="0.1672" style="stop-color:#826A55"/>
	<stop  offset="0.3013" style="stop-color:#645343"/>
	<stop  offset="0.4432" style="stop-color:#4E4135"/>
	<stop  offset="0.5962" style="stop-color:#3D342C"/>
	<stop  offset="0.7684" style="stop-color:#342C26"/>
	<stop  offset="1" style="stop-color:#312A24"/>
</linearGradient>
<path class="st4" d="M263.5,85.7C251.1,71.9,234.3,65,213.1,65c-21.3,0-38.1,6.9-50.6,20.7c-12.6,13.8-18.8,32.9-18.8,57.3
	s6.3,43.5,18.8,57.3s29.4,20.7,50.6,20.7s38-6.9,50.4-20.7s18.6-32.9,18.6-57.3S275.9,99.5,263.5,85.7z M235.5,168.6
	c-5.5,6.2-13,9.2-22.5,9.2s-17-3.1-22.6-9.2S182,153.9,182,143s2.8-19.4,8.4-25.6c5.6-6.2,13.1-9.2,22.6-9.2s16.9,3.1,22.5,9.2
	c5.5,6.2,8.3,14.7,8.3,25.6S241,162.4,235.5,168.6z"/>
<path class="st2" d="M579.4,143.6c0,1.1-6.7,1.7-20,1.7s-20-0.5-20-1.4l-5.6-138c0-1.5,8.5-2.2,25.6-2.2s25.6,0.7,25.6,2
	L579.4,143.6z"/>
<path class="st5" d="M579.8,35.8c-0.8,2.4-1.9,3.6-3.3,3.6c-1.4,0-3.1-0.6-5.2-1.7c-2.1-1.2-3.1-2.1-3.1-2.9c0-0.2,0.1-0.5,0.3-0.8
	s0.5-0.9,0.7-2c0.3-1,0.4-1.9,0.4-2.6c0-2.5-0.8-4.6-2.5-6.1c-1.6-1.5-4.2-2.3-7.5-2.3c-3.4,0-5.9,0.8-7.5,2.4s-2.5,3.6-2.5,6
	c0,1,0.1,2.1,0.4,3.4c0.3,1.2,0.6,2.1,1.1,2.6c0.1,0.1,0.1,0.3,0.1,0.5c0,0.3-0.5,0.8-1.4,1.5s-2.1,1.4-3.5,2
	c-1.5,0.6-2.6,0.9-3.4,0.9c-1.6,0-2.8-1.3-3.7-3.9c-0.9-2.6-1.4-5.7-1.4-9.3c0-5.7,1.9-10.5,5.6-14.2c3.7-3.7,9-5.6,15.8-5.6
	s12.1,1.9,16,5.7s5.8,8.6,5.8,14.3C581,30.6,580.6,33.4,579.8,35.8z"/>
<path class="st5" d="M538.6,59.5c0-5.9,1.8-10.7,5.3-14.4s8.7-5.5,15.5-5.5s11.9,1.9,15.4,5.6c3.5,3.7,5.3,8.6,5.3,14.5
	s-1.7,10.7-5.2,14.3c-3.4,3.6-8.7,5.5-15.6,5.5c-7,0-12.2-1.9-15.6-5.6C540.3,70.2,538.6,65.4,538.6,59.5z M569,59.6
	c0-2-0.8-3.7-2.5-5c-1.7-1.4-4.1-2-7.1-2s-5.4,0.6-7,1.9c-1.6,1.3-2.5,3-2.5,5.1s0.8,3.8,2.5,5.1c1.7,1.3,4,2,7.1,2s5.4-0.7,7.1-2
	C568.2,63.3,569,61.6,569,59.6z"/>
<path class="st5" d="M542.5,82.7h33.3c0.9,0,1.7,0.3,2.2,0.8s0.8,1.2,0.8,2v10.1c0,6.4-1.5,11.2-4.4,14.5c-3,3.3-7.6,5-14,5
	c-13.6,0-20.4-6.3-20.4-18.9V85.8C540,83.7,540.8,82.7,542.5,82.7z M568.3,94.3h-16.6c-0.8,0-1.3,0.1-1.5,0.2s-0.3,0.5-0.3,1.1
	c0,2.2,0.8,3.9,2.3,5s4,1.7,7.6,1.7c3.5,0,5.8-0.6,6.9-1.8c1.1-1.2,1.6-3.1,1.6-5.6V94.3z"/>
<path class="st5" d="M562.9,136.1c0,0.7-1.1,1-3.4,1c-0.7,0-1.5-0.1-2.4-0.2c-0.9-0.2-1.4-0.5-1.4-0.9v-6.8h-4.9v9.8
	c0,0.6-0.7,1-2.2,1.2c-0.6,0.1-1.3,0.2-2,0.2s-1.6-0.1-2.7-0.3s-1.7-0.6-1.7-1.1v-18.2c0-1.3,0.5-2,1.5-2h31.5
	c0.8,0,1.3,0.4,1.3,1.2v19.1c0,0.7-1.4,1.1-4.3,1.1c-2.9,0-4.3-0.4-4.3-1.1v-9.9h-5L562.9,136.1L562.9,136.1z"/>
</svg>
