<svg id="Layer_1" data-name="Layer 1" xmlns="http://www.w3.org/2000/svg" viewBox="0 0 938.16 306.13"><title>logo</title><path d="M184.82,210.64V168.77a15,15,0,0,0-15-15H146.75v-4.5h23.07a15,15,0,0,0,15-15V92.41C184.82,41.58,143.23,0,92.41,0h0C41.58,0,0,41.58,0,92.41v17.87H69.25a33,33,0,1,1,56-20.66c-1.39,16.62-16.85,30.16-33.53,30.16H0v64.75H91.76c16.68,0,32.14,13.54,33.53,30.16a33,33,0,1,1-56-20.66H0v16.61C0,261.46,41.58,303,92.41,303h0C143.23,303,184.82,261.46,184.82,210.64Z" style="fill:#2b3580"/><path d="M294.86,264.54a56.24,56.24,0,0,1-7.4,21.27,40,40,0,0,1-16.33,14.8q-10.7,5.52-28.55,5.52-18.57,0-29.37-5.05T197,287A53.84,53.84,0,0,1,190,265.83a207.29,207.29,0,0,1-1.53-26,167.67,167.67,0,0,1,1.76-24.44,57.31,57.31,0,0,1,7.4-21.38A41.4,41.4,0,0,1,214,178.88q10.69-5.76,28.55-5.76,18.56,0,29.38,5.29a37.14,37.14,0,0,1,16.21,14.45,55,55,0,0,1,6.93,21.27,207.93,207.93,0,0,1,1.53,26A167.64,167.64,0,0,1,294.86,264.54Zm-63.57-4.82a52.32,52.32,0,0,0,1.88,12.1q1.41,4.47,3.64,6.11a9.45,9.45,0,0,0,5.76,1.65,10,10,0,0,0,5.88-1.65q2.35-1.64,3.64-6.11a58.43,58.43,0,0,0,1.76-12.1q0.47-7.63.47-19.62t-0.47-19.74a59,59,0,0,0-1.76-12.22q-1.29-4.46-3.64-6.11a10,10,0,0,0-5.87-1.65,9.47,9.47,0,0,0-5.76,1.65q-2.24,1.65-3.64,6.11a52.82,52.82,0,0,0-1.88,12.22q-0.47,7.75-.47,19.74T231.29,259.72Z" style="fill:#2b3580"/><path d="M343.62,176.41v20.21h0.47q3.53-11.51,11.28-17.51a27.4,27.4,0,0,1,17.16-6h6.81V212.6q-2.82-.47-5.4-0.71t-5.17-.24q-11.28,0-17.51,4.93T345,234.22v69.33h-42.3V176.41h40.89Z" style="fill:#2b3580"/><path d="M427.75,135.75v84.6h0.47l23.5-43.95h45.12l-35.25,52.41,39.71,74.73H456.18L434.8,259.83l-7,11v32.67h-42.3V135.75h42.3Z" style="fill:#2b3580"/><path d="M557.23,213.66a29.13,29.13,0,0,0-2.11-7.87q-2.59-5.4-9.4-5.41a10,10,0,0,0-6,1.76q-2.47,1.76-3.88,6.34a58,58,0,0,0-2,12.22q-0.59,7.64-.59,19.39t0.59,19.39a55.73,55.73,0,0,0,2,12.1q1.41,4.47,3.88,6.23a10,10,0,0,0,6,1.76,10.44,10.44,0,0,0,9-4.46q3.17-4.46,3.17-16.45v-8.23H596A109.47,109.47,0,0,1,593.42,276a39.65,39.65,0,0,1-8.7,17.39q-12,12.69-39,12.69A109.14,109.14,0,0,1,523.39,304a34.45,34.45,0,0,1-17.27-9Q498.95,288,495,275.46t-4-33.25q0-22.56,4.46-36.19t12.1-20.92a37.69,37.69,0,0,1,18-9.64,100.81,100.81,0,0,1,22.33-2.35q14.1,0,23.38,3.88A36.46,36.46,0,0,1,586,187.81a41.15,41.15,0,0,1,7.75,16.68A97.67,97.67,0,0,1,596,226.23H557.94A90.12,90.12,0,0,0,557.23,213.66Z" style="fill:#548888"/><path d="M825.13,135.75V303.54H784.24V286.16h-0.47q-4,10.57-10.81,15.27t-18.1,4.7q-21.15,0-29.61-16.68t-8.46-52.17q0-18.09,2.82-30.32t7.87-19.74a29.47,29.47,0,0,1,12.34-10.81,38.37,38.37,0,0,1,16-3.29A33.29,33.29,0,0,1,771.9,177q7.17,3.88,10.46,13.75h0.47v-55h42.3ZM759.56,257a48.63,48.63,0,0,0,1.76,10.93q1.29,4.11,3.64,5.76a10.42,10.42,0,0,0,6.11,1.64A10,10,0,0,0,777,273.7q2.35-1.64,3.64-5.76A49.09,49.09,0,0,0,782.36,257q0.47-6.81.47-16.92,0-10.34-.47-17.15A49.17,49.17,0,0,0,780.6,212q-1.29-4.11-3.64-5.76a10,10,0,0,0-5.87-1.64,10.45,10.45,0,0,0-6.11,1.64q-2.35,1.65-3.64,5.76a48.71,48.71,0,0,0-1.76,10.93q-0.47,6.82-.47,17.15Q759.09,250.2,759.56,257Z" style="fill:#548888"/><path d="M875.41,263.83q0,10.34,3.53,13.75a11.19,11.19,0,0,0,8,3.41,10.13,10.13,0,0,0,8.81-4.58q3.17-4.58,3.17-17.51H937q-0.47,23.5-12,35.37t-37.83,11.87q-15.28,0-25.62-3.41a34.85,34.85,0,0,1-16.68-11.28q-6.35-7.87-9-20.56t-2.7-30.79q0-18.33,3.05-31t9.63-20.68a37.71,37.71,0,0,1,16.8-11.63q10.22-3.64,24.56-3.64a72.88,72.88,0,0,1,22.21,3.05,35.87,35.87,0,0,1,16,10.22q6.46,7.17,9.63,18.8t3.17,29v12.92H875.41v16.69Zm20.8-60.16q-2.47-4.7-9.28-4.7-6.58,0-9,4.7t-2.47,14.81v5.64h23.26v-5.64Q898.68,208.37,896.21,203.67Z" style="fill:#548888"/><path d="M708.22,214.13a55,55,0,0,0-6.93-21.27,37.14,37.14,0,0,0-16.21-14.45q-10.81-5.29-29.37-5.29-17.86,0-28.55,5.76A41.4,41.4,0,0,0,610.81,194a57.31,57.31,0,0,0-7.4,21.38,167.67,167.67,0,0,0-1.76,24.44,207.29,207.29,0,0,0,1.53,26A53.84,53.84,0,0,0,610.1,287q5.4,9,16.21,14.1t29.38,5.05q17.86,0,28.55-5.52a40,40,0,0,0,16.33-14.8,56.24,56.24,0,0,0,7.4-21.27,167.64,167.64,0,0,0,1.76-24.44A207.93,207.93,0,0,0,708.22,214.13Zm-21.33,56.62H624.51V208.38h62.38v62.38Z" style="fill:#548888"/><path d="M634.73,219.08v41.8h41.8v-41.8h-41.8ZM669,252.87H642.26V226.12H669v26.75Z" style="fill:#548888;stroke:#548888;stroke-miterlimit:10;isolation:isolate"/></svg>